<svg width="20" height="22" viewBox="0 0 20 22" fill="none" xmlns="http://www.w3.org/2000/svg">
<path d="M9.74374 12.4227H2.34519C1.98842 12.4227 1.64626 12.2811 1.39399 12.0291C1.14172 11.7771 1 11.4353 1 11.0788V2.34385C1 1.98744 1.14172 1.64562 1.39399 1.3936C1.64626 1.14158 1.98842 1 2.34519 1H17.1423C17.4991 1 17.8412 1.14158 18.0935 1.3936C18.3458 1.64562 18.4875 1.98744 18.4875 2.34385V11.0788C18.4875 11.4353 18.3458 11.7771 18.0935 12.0291C17.8412 12.2811 17.4991 12.4227 17.1423 12.4227H13.1067" stroke="#0D263B" stroke-width="1.35" stroke-linecap="round" stroke-linejoin="round"/>
<path d="M10.5508 3.68774H15.797" stroke="#0D263B" stroke-width="1.35" stroke-linecap="round" stroke-linejoin="round"/>
<path d="M13.1072 12.4227V8.72266C13.0761 8.29835 12.8855 7.90148 12.5736 7.61182C12.2617 7.32215 11.8516 7.16113 11.4257 7.16113C10.9998 7.16113 10.5897 7.32215 10.2778 7.61182C9.96587 7.90148 9.77524 8.29835 9.7442 8.72266V13.3186L9.30478 15.0656C9.07158 15.9251 9.07158 16.8311 9.30478 17.6906C9.62753 18.302 9.99942 18.8863 10.4168 19.4376V21.2294H16.4702C16.4702 17.2695 16.2998 17.8519 16.9634 15.1373" stroke="#0D263B" stroke-width="1.35" stroke-linecap="round" stroke-linejoin="round"/>
<path d="M9.41201 14.6086C9.13851 15.3092 8.66437 15.9137 8.04888 16.3466C7.51977 16.6244 6.38086 16.4541 6.38086 15.4507V12.4226" stroke="#0D263B" stroke-width="1.35" stroke-linecap="round" stroke-linejoin="round"/>
<path d="M5.70821 8.0506C6.10729 8.0506 6.49741 7.93236 6.82923 7.71086C7.16106 7.48937 7.41969 7.17455 7.57241 6.80622C7.72513 6.43788 7.76508 6.03258 7.68722 5.64156C7.60936 5.25054 7.41721 4.89136 7.13502 4.60945C6.85282 4.32754 6.49329 4.13555 6.10188 4.05777C5.71046 3.97999 5.30476 4.01993 4.93605 4.17249C4.56735 4.32506 4.25219 4.58346 4.03048 4.91496C3.80876 5.24645 3.69043 5.63615 3.69043 6.03483C3.69043 6.56944 3.90301 7.08217 4.28141 7.4602C4.65982 7.83823 5.17306 8.0506 5.70821 8.0506V8.0506Z" stroke="#0D263B" stroke-width="1.35" stroke-linecap="round" stroke-linejoin="round"/>
</svg>
