<svg fill="none" height="25" viewBox="0 0 25 25" width="25" xmlns="http://www.w3.org/2000/svg"><g stroke="#0d263b" stroke-linecap="round" stroke-linejoin="round" stroke-width="1.5"><path d="m13.2439 14.331-3.69312.5277.52762-3.7031 9.4965-9.49651c.4197-.42109.9896-.65815 1.5842-.65909.2944-.000459.586.05716.8582.16939.2722.11224.5195.27699.728.48484s.3741.45459.4872.72641.1715.56348.172.85789c.0004.29441-.0571.58596-.1693.85813-.1123.27217-.277.51961-.4849.72811z"/><path d="m18.5195 2.71436 3.1656 3.16543"/><path d="m18.9179 14.4407v7.4658c0 .396-.1573.7757-.4373 1.0557s-.6598.4374-1.0558.4374h-14.93164c-.39601 0-.77581-.1574-1.05583-.4374s-.43733-.6597-.43733-1.0557v-14.93165c0-.39601.15731-.77569.43733-1.05571s.65982-.43745 1.05583-.43745h7.46581"/></g></svg>