<svg width="22" height="22" viewBox="0 0 22 22" fill="none" xmlns="http://www.w3.org/2000/svg">
<path d="M1 4.94216C1 4.59367 1.13843 4.25955 1.38485 4.01313C1.63127 3.76671 1.96549 3.62817 2.31398 3.62817H19.3958C19.7442 3.62817 20.0785 3.76671 20.3249 4.01313C20.5713 4.25955 20.7097 4.59367 20.7097 4.94216V19.396C20.7097 19.7445 20.5713 20.0786 20.3249 20.325C20.0785 20.5714 19.7442 20.7099 19.3958 20.7099H2.31398C1.96549 20.7099 1.63127 20.5714 1.38485 20.325C1.13843 20.0786 1 19.7445 1 19.396V4.94216Z" stroke="#0D263B" stroke-width="1.5" stroke-linecap="round" stroke-linejoin="round"/>
<path d="M1 8.88379H20.7097" stroke="#0D263B" stroke-width="1.5" stroke-linecap="round" stroke-linejoin="round"/>
<path d="M6.25586 5.59894V1" stroke="#0D263B" stroke-width="1.5" stroke-linecap="round" stroke-linejoin="round"/>
<path d="M15.4534 5.59894V1" stroke="#0D263B" stroke-width="1.5" stroke-linecap="round" stroke-linejoin="round"/>
<path d="M5.27463 12.1692C5.227 12.1614 5.17822 12.164 5.13172 12.1769C5.08521 12.1898 5.04208 12.2128 5.0053 12.244C4.96851 12.2753 4.93895 12.314 4.91868 12.3578C4.89842 12.4016 4.88794 12.4494 4.88794 12.4977C4.88794 12.546 4.89842 12.5938 4.91868 12.6376C4.93895 12.6814 4.96851 12.7201 5.0053 12.7513C5.04208 12.7826 5.08521 12.8056 5.13172 12.8185C5.17822 12.8314 5.227 12.834 5.27463 12.8262C5.35255 12.8134 5.42337 12.7734 5.47449 12.7133C5.52561 12.6531 5.55367 12.5766 5.55367 12.4977C5.55367 12.4187 5.52561 12.3423 5.47449 12.2821C5.42337 12.2219 5.35255 12.182 5.27463 12.1692" stroke="#0D263B" stroke-width="1.5" stroke-linecap="round" stroke-linejoin="round"/>
<path d="M5.27463 16.7678C5.227 16.76 5.17822 16.7626 5.13172 16.7755C5.08521 16.7884 5.04208 16.8114 5.0053 16.8427C4.96851 16.8739 4.93895 16.9126 4.91868 16.9565C4.89842 17.0003 4.88794 17.0481 4.88794 17.0963C4.88794 17.1446 4.89842 17.1924 4.91868 17.2362C4.93895 17.28 4.96851 17.3187 5.0053 17.35C5.04208 17.3812 5.08521 17.4042 5.13172 17.4171C5.17822 17.43 5.227 17.4326 5.27463 17.4248C5.35255 17.4121 5.42337 17.3721 5.47449 17.3119C5.52561 17.2517 5.55367 17.1753 5.55367 17.0963C5.55367 17.0174 5.52561 16.9409 5.47449 16.8807C5.42337 16.8206 5.35255 16.7806 5.27463 16.7678" stroke="#0D263B" stroke-width="1.5" stroke-linecap="round" stroke-linejoin="round"/>
<path d="M10.6704 12.2247C10.7251 12.1882 10.7895 12.1687 10.8553 12.1687C10.9436 12.1687 11.0283 12.2038 11.0907 12.2662C11.1532 12.3286 11.1882 12.4132 11.1882 12.5015C11.1882 12.5673 11.1687 12.6317 11.1321 12.6865C11.0955 12.7412 11.0436 12.7838 10.9827 12.809C10.9219 12.8342 10.855 12.8409 10.7904 12.828C10.7258 12.8152 10.6665 12.7835 10.62 12.7369C10.5734 12.6904 10.5417 12.6311 10.5289 12.5665C10.516 12.5019 10.5226 12.435 10.5478 12.3742C10.573 12.3134 10.6157 12.2613 10.6704 12.2247Z" stroke="#0D263B" stroke-width="1.5" stroke-linecap="round" stroke-linejoin="round"/>
<path d="M10.8557 16.7678C10.7778 16.7806 10.707 16.8206 10.6558 16.8807C10.6047 16.9409 10.5767 17.0174 10.5767 17.0963C10.5767 17.1753 10.6047 17.2517 10.6558 17.3119C10.707 17.3721 10.7778 17.4121 10.8557 17.4248C10.9034 17.4326 10.9521 17.43 10.9986 17.4171C11.0451 17.4042 11.0883 17.3812 11.1251 17.35C11.1618 17.3187 11.1914 17.28 11.2117 17.2362C11.2319 17.1924 11.2424 17.1446 11.2424 17.0963C11.2424 17.0481 11.2319 17.0003 11.2117 16.9565C11.1914 16.9126 11.1618 16.8739 11.1251 16.8427C11.0883 16.8114 11.0451 16.7884 10.9986 16.7755C10.9521 16.7626 10.9034 16.76 10.8557 16.7678Z" stroke="#0D263B" stroke-width="1.5" stroke-linecap="round" stroke-linejoin="round"/>
<path d="M16.4438 12.1692C16.3962 12.1614 16.3474 12.164 16.3009 12.1769C16.2544 12.1898 16.2113 12.2128 16.1745 12.244C16.1377 12.2753 16.1081 12.314 16.0879 12.3578C16.0676 12.4016 16.0571 12.4494 16.0571 12.4977C16.0571 12.546 16.0676 12.5938 16.0879 12.6376C16.1081 12.6814 16.1377 12.7201 16.1745 12.7513C16.2113 12.7826 16.2544 12.8056 16.3009 12.8185C16.3474 12.8314 16.3962 12.834 16.4438 12.8262C16.5217 12.8134 16.5926 12.7734 16.6437 12.7133C16.6948 12.6531 16.7229 12.5766 16.7229 12.4977C16.7229 12.4187 16.6948 12.3423 16.6437 12.2821C16.5926 12.2219 16.5217 12.182 16.4438 12.1692" stroke="#0D263B" stroke-width="1.5" stroke-linecap="round" stroke-linejoin="round"/>
<path d="M10.9294 12.1692C10.8818 12.1614 10.833 12.164 10.7865 12.1769C10.74 12.1898 10.6969 12.2128 10.6601 12.244C10.6233 12.2753 10.5937 12.314 10.5735 12.3578C10.5532 12.4016 10.5427 12.4494 10.5427 12.4977C10.5427 12.546 10.5532 12.5938 10.5735 12.6376C10.5937 12.6814 10.6233 12.7201 10.6601 12.7513C10.6969 12.7826 10.74 12.8056 10.7865 12.8185C10.833 12.8314 10.8818 12.834 10.9294 12.8262C11.0073 12.8134 11.0782 12.7734 11.1293 12.7133C11.1804 12.6531 11.2085 12.5766 11.2085 12.4977C11.2085 12.4187 11.1804 12.3423 11.1293 12.2821C11.0782 12.2219 11.0073 12.182 10.9294 12.1692" stroke="#0D263B" stroke-width="1.5" stroke-linecap="round" stroke-linejoin="round"/>
<path d="M16.4438 16.7678C16.3962 16.76 16.3474 16.7626 16.3009 16.7755C16.2544 16.7884 16.2113 16.8114 16.1745 16.8427C16.1377 16.8739 16.1081 16.9126 16.0879 16.9565C16.0676 17.0003 16.0571 17.0481 16.0571 17.0963C16.0571 17.1446 16.0676 17.1924 16.0879 17.2362C16.1081 17.28 16.1377 17.3187 16.1745 17.35C16.2113 17.3812 16.2544 17.4042 16.3009 17.4171C16.3474 17.43 16.3962 17.4326 16.4438 17.4248C16.5217 17.4121 16.5926 17.3721 16.6437 17.3119C16.6948 17.2517 16.7229 17.1753 16.7229 17.0963C16.7229 17.0174 16.6948 16.9409 16.6437 16.8807C16.5926 16.8206 16.5217 16.7806 16.4438 16.7678" stroke="#0D263B" stroke-width="1.5" stroke-linecap="round" stroke-linejoin="round"/>
<path d="M10.9294 16.7678C10.8818 16.76 10.833 16.7626 10.7865 16.7755C10.74 16.7884 10.6969 16.8114 10.6601 16.8427C10.6233 16.8739 10.5937 16.9126 10.5735 16.9565C10.5532 17.0003 10.5427 17.0481 10.5427 17.0963C10.5427 17.1446 10.5532 17.1924 10.5735 17.2362C10.5937 17.28 10.6233 17.3187 10.6601 17.35C10.6969 17.3812 10.74 17.4042 10.7865 17.4171C10.833 17.43 10.8818 17.4326 10.9294 17.4248C11.0073 17.4121 11.0782 17.3721 11.1293 17.3119C11.1804 17.2517 11.2085 17.1753 11.2085 17.0963C11.2085 17.0174 11.1804 16.9409 11.1293 16.8807C11.0782 16.8206 11.0073 16.7806 10.9294 16.7678" stroke="#0D263B" stroke-width="1.5" stroke-linecap="round" stroke-linejoin="round"/>
</svg>
