<svg width="25" height="25" viewBox="0 0 25 25" fill="none" xmlns="http://www.w3.org/2000/svg">
<path d="M8.47925 18.3192L5.48755 20.5815V16.057H2.49585C2.09913 16.057 1.71864 15.8981 1.43812 15.6152C1.15759 15.3324 1 14.9488 1 14.5488V2.4835C1 2.08351 1.15759 1.6999 1.43812 1.41706C1.71864 1.13423 2.09913 0.975342 2.49585 0.975342H18.9502C19.3469 0.975342 19.7274 1.13423 20.0079 1.41706C20.2885 1.6999 20.4461 2.08351 20.4461 2.4835V7.00799" stroke="#0D263B" stroke-width="1.4" stroke-linecap="round" stroke-linejoin="round"/>
<path d="M5.48779 5.49976H15.9588" stroke="#0D263B" stroke-width="1.4" stroke-linecap="round" stroke-linejoin="round"/>
<path d="M5.48779 10.0244H8.4795" stroke="#0D263B" stroke-width="1.4" stroke-linecap="round" stroke-linejoin="round"/>
<path d="M23.438 19.0734H20.4463V23.5979L15.9587 19.0734H11.4712V10.0244H23.438V19.0734Z" stroke="#0D263B" stroke-width="1.4" stroke-linecap="round" stroke-linejoin="round"/>
<path d="M20.4453 13.0405H14.4619" stroke="#0D263B" stroke-width="1.4" stroke-linecap="round" stroke-linejoin="round"/>
<path d="M20.4453 16.0569H14.4619" stroke="#0D263B" stroke-width="1.4" stroke-linecap="round" stroke-linejoin="round"/>
</svg>
