<svg width="112" height="112" viewBox="0 0 112 112" fill="none" xmlns="http://www.w3.org/2000/svg">
<circle cx="56" cy="56" r="56" fill="#EDF4FD"/>
<path d="M30 35.8759L33.4124 40.1982V50.3445C33.4124 54.1891 37.7575 57.6242 41.9434 61.1731" stroke="#184997" stroke-width="2.4" stroke-linecap="round" stroke-linejoin="round"/>
<path d="M40.192 47.5921L44.2186 51.7098C44.5566 52.0586 44.9808 52.3117 45.4483 52.4436C45.9158 52.5754 46.4098 52.5813 46.8803 52.4605C47.3505 52.3394 47.7807 52.0972 48.128 51.7579C48.4753 51.4186 48.7275 50.994 48.8595 50.5267C48.9955 50.0591 49.004 49.5636 48.884 49.0916C48.764 48.6196 48.5199 48.1882 48.177 47.8423L41.9437 41.4498V38.1284C41.5932 36.1291 40.8174 34.2283 39.6687 32.5548" stroke="#184997" stroke-width="2.4" stroke-linecap="round" stroke-linejoin="round"/>
<path d="M41.9417 49.3671V76.9165C41.9417 77.8215 42.3012 78.6895 42.9412 79.3295C43.5811 79.9694 44.4491 80.3289 45.3541 80.3289H62.4161" stroke="#184997" stroke-width="2.4" stroke-linecap="round" stroke-linejoin="round"/>
<path d="M81.1878 80.3959L77.7754 76.0963V65.9274C77.7754 62.606 74.545 59.603 70.9506 56.5546V68.6572L66.9695 64.5851C66.4541 64.0688 65.7561 63.7761 65.0266 63.7705C64.2971 63.7649 63.5947 64.0468 63.0714 64.5551C62.5481 65.0634 62.246 65.7574 62.2304 66.4868C62.2149 67.2162 62.4872 67.9224 62.9884 68.4525L69.2672 74.8451V78.1664C69.6173 80.1588 70.3933 82.0522 71.5421 83.7173" stroke="#184997" stroke-width="2.4" stroke-linecap="round" stroke-linejoin="round"/>
<path d="M57.8677 71.7972H48.768" stroke="#184997" stroke-width="2.4" stroke-linecap="round" stroke-linejoin="round"/>
<path d="M52.1804 63.2659H48.768" stroke="#184997" stroke-width="2.4" stroke-linecap="round" stroke-linejoin="round"/>
<path d="M74.3608 42.792C74.3608 44.8167 73.7603 46.796 72.6355 48.4795C71.5106 50.163 69.9118 51.4751 68.0412 52.25C66.1706 53.0248 64.1122 53.2275 62.1264 52.8325C60.1406 52.4375 58.3165 51.4625 56.8848 50.0308C55.4531 48.5991 54.4781 46.775 54.0831 44.7892C53.6881 42.8033 53.8908 40.745 54.6656 38.8744C55.4405 37.0038 56.7526 35.405 58.4361 34.2801C60.1196 33.1552 62.0988 32.5548 64.1236 32.5548" stroke="#184997" stroke-width="2.4" stroke-linecap="round" stroke-linejoin="round"/>
<path d="M74.3587 35.1028L65.0314 44.43C64.9132 44.5519 64.7718 44.6489 64.6155 44.7153C64.4592 44.7817 64.2913 44.8162 64.1215 44.8168C63.9513 44.8189 63.7825 44.7855 63.6258 44.719C63.4692 44.6524 63.3281 44.554 63.2115 44.43L60.2768 41.4953" stroke="#184997" stroke-width="2.4" stroke-linecap="round" stroke-linejoin="round"/>
</svg>
