<svg width="112" height="113" viewBox="0 0 112 113" fill="none" xmlns="http://www.w3.org/2000/svg">
<circle cx="56" cy="56.6709" r="56" fill="#EDF4FD"/>
<path d="M31 59.8909V80.3653" stroke="#184997" stroke-width="2.4" stroke-linecap="round" stroke-linejoin="round"/>
<path d="M31 76.9531H65.124C65.124 75.1431 64.405 73.4071 63.1251 72.1272C61.8452 70.8474 60.1092 70.1284 58.2992 70.1284H49.7682C49.7682 68.3183 49.0492 66.5824 47.7693 65.3025C46.4894 64.0226 44.7534 63.3036 42.9434 63.3036H31" stroke="#184997" stroke-width="2.4" stroke-linecap="round" stroke-linejoin="round"/>
<path d="M42.9417 70.1279H49.7665" stroke="#184997" stroke-width="2.4" stroke-linecap="round" stroke-linejoin="round"/>
<path d="M69.854 62.394C70.3454 63.0444 70.9869 63.5664 71.7237 63.915C72.4606 64.2636 73.2708 64.4286 74.0853 64.396C76.656 64.396 78.7717 62.8265 78.7717 60.87C78.7717 58.9136 76.656 57.3438 74.0853 57.3438C71.5146 57.3438 69.3762 55.774 69.3762 53.8403C69.3762 51.9066 71.4919 50.3143 74.0853 50.3143C74.8938 50.2847 75.6977 50.4488 76.4298 50.7931C77.1619 51.1374 77.801 51.6519 78.2939 52.2935" stroke="#184997" stroke-width="2.4" stroke-linecap="round" stroke-linejoin="round"/>
<path d="M74.0888 64.3957V66.6706" stroke="#184997" stroke-width="2.4" stroke-linecap="round" stroke-linejoin="round"/>
<path d="M74.0888 47.9706V50.2456" stroke="#184997" stroke-width="2.4" stroke-linecap="round" stroke-linejoin="round"/>
<path d="M63.4183 58.1855H54.546C54.1225 58.1843 53.7034 58.0993 53.313 57.9353C52.9225 57.7713 52.5684 57.5315 52.2711 57.2299C51.9807 56.9289 51.7544 56.5721 51.6058 56.1811C51.4572 55.7901 51.3894 55.373 51.4066 54.955V39.0305C51.4005 38.6212 51.4753 38.2149 51.6264 37.8344C51.7775 37.454 52.002 37.107 52.2872 36.8133C52.5724 36.5197 52.9127 36.2851 53.2886 36.123C53.6644 35.9608 54.0685 35.8742 54.4778 35.8683H79.047C79.4563 35.8742 79.8604 35.9608 80.2363 36.123C80.6122 36.2851 80.9525 36.5197 81.2377 36.8133C81.5229 37.107 81.7474 37.454 81.8985 37.8344C82.0496 38.2149 82.1242 38.6212 82.1181 39.0305V47.8117" stroke="#184997" stroke-width="2.4" stroke-linecap="round" stroke-linejoin="round"/>
<path d="M61.7127 36.0048V33.7298C61.7475 33.0941 61.9078 32.4716 62.1844 31.8981C62.461 31.3247 62.8483 30.8115 63.3242 30.3885C63.8 29.9656 64.355 29.641 64.9569 29.4335C65.5589 29.2261 66.1959 29.14 66.8313 29.18V29.18C68.1132 29.1054 69.3722 29.5427 70.332 30.3958C71.2917 31.2489 71.8737 32.448 71.9499 33.7298V36.0048" stroke="#184997" stroke-width="2.4" stroke-linecap="round" stroke-linejoin="round"/>
</svg>
