<svg width="112" height="113" viewBox="0 0 112 113" fill="none" xmlns="http://www.w3.org/2000/svg">
<circle cx="56" cy="56.6709" r="56" fill="#EDF4FD"/>
<path d="M54.4371 77.8206H35.9452" stroke="#184997" stroke-width="2.4" stroke-linecap="round" stroke-linejoin="round"/>
<path d="M61.486 57.9987C61.6692 57.5165 61.9963 57.1019 62.423 56.8113C62.8497 56.5207 63.3556 56.3682 63.872 56.374H86.4581C86.8519 56.3773 87.2402 56.4661 87.596 56.6345C87.9519 56.8028 88.2668 57.0466 88.5188 57.3488C88.7535 57.6521 88.9086 58.0092 88.9702 58.3875C89.0317 58.7658 88.9978 59.1535 88.8713 59.5154L82.3638 77.8214H54.4363L61.486 57.9987Z" stroke="#184997" stroke-width="2.4" stroke-linecap="round" stroke-linejoin="round"/>
<path d="M71.7624 63.7671C72.2987 63.7671 72.8229 63.926 73.2687 64.2236C73.7146 64.5211 74.0622 64.9439 74.2674 65.4387C74.4726 65.9336 74.5264 66.478 74.4217 67.0033C74.3171 67.5286 74.0589 68.0114 73.6797 68.3901C73.3005 68.7688 72.8173 69.0267 72.2914 69.1312C71.7654 69.2357 71.2203 69.1818 70.7248 68.9768C70.2294 68.7719 69.8059 68.4248 69.5079 67.9795C69.21 67.5342 69.051 67.0107 69.051 66.4751C69.051 65.7569 69.3366 65.0679 69.8451 64.5601C70.3536 64.0522 71.0433 63.7671 71.7624 63.7671Z" stroke="#184997" stroke-width="2.4" stroke-linecap="round" stroke-linejoin="round"/>
<path d="M28 77.8211C28.0162 75.0403 28.7021 72.3042 29.9999 69.8438C31.2977 67.3835 33.1692 65.2712 35.4564 63.6853C37.7894 62.0407 40.464 60.943 43.2808 60.4741C46.0975 60.0053 48.9839 60.1773 51.7249 60.9773" stroke="#184997" stroke-width="2.4" stroke-linecap="round" stroke-linejoin="round"/>
<path d="M36.6488 40.207C39.3378 42.8235 42.7358 44.5948 46.4225 45.3024C50.1092 46.0099 53.9227 45.6225 57.3911 44.1877" stroke="#184997" stroke-width="2.4" stroke-linecap="round" stroke-linejoin="round"/>
<path d="M46.3026 56.3738C48.4313 56.3047 50.4925 55.6109 52.2291 54.3795C53.9657 53.148 55.3007 51.4331 56.0678 49.4487C56.8349 47.4643 57.0001 45.2982 56.5426 43.2207C56.0852 41.1432 55.0254 39.2462 53.4955 37.7663C51.9656 36.2864 50.0334 35.2892 47.9397 34.899C45.846 34.5087 43.6836 34.7428 41.7223 35.572C39.7609 36.4012 38.0875 37.7887 36.9106 39.5616C35.7337 41.3346 35.1055 43.4145 35.1044 45.5417C35.1036 46.9943 35.3954 48.4323 35.9624 49.77C36.5294 51.1077 37.3599 52.3176 38.4046 53.3282C39.4494 54.3388 40.687 55.1293 42.0438 55.6525C43.4006 56.1757 44.8489 56.421 46.3026 56.3738Z" stroke="#184997" stroke-width="2.4" stroke-linecap="round" stroke-linejoin="round"/>
</svg>
