<svg width="112" height="113" viewBox="0 0 112 113" fill="none" xmlns="http://www.w3.org/2000/svg">
<circle cx="56" cy="56.6709" r="56" fill="#EDF4FD"/>
<path d="M71.1407 34.0634C67.091 30.7874 62.0398 29 56.8309 29C51.622 29 46.5708 30.7874 42.521 34.0634" stroke="#184997" stroke-width="2.4" stroke-linecap="round" stroke-linejoin="round"/>
<path d="M48.4832 42.6965C50.8465 40.7875 53.7926 39.7461 56.8306 39.7461C59.8685 39.7461 62.8147 40.7875 65.178 42.6965" stroke="#184997" stroke-width="2.4" stroke-linecap="round" stroke-linejoin="round"/>
<path d="M36.2725 66.5705C37.5141 66.5705 38.7278 66.2023 39.7598 65.512C40.7918 64.8217 41.5957 63.8401 42.0698 62.6926C42.5438 61.5451 42.6667 60.283 42.4227 59.0657C42.1787 57.8483 41.5789 56.7307 40.6993 55.8544C39.8197 54.9782 38.6999 54.3825 37.4816 54.1432C36.2632 53.9038 35.0013 54.0316 33.8556 54.51C32.7099 54.9884 31.7319 55.7957 31.0455 56.8303C30.3592 57.865 29.9953 59.08 30 60.3216C30.0064 61.981 30.67 63.5705 31.8456 64.7416C33.0213 65.9128 34.6131 66.5705 36.2725 66.5705V66.5705Z" stroke="#184997" stroke-width="2.4" stroke-linecap="round" stroke-linejoin="round"/>
<path d="M46.1225 74.9184C45.4961 73.4365 44.5431 72.1154 43.3347 71.0533C42.1263 69.9911 40.6937 69.2152 39.1437 68.7842C37.5937 68.3531 35.9663 68.2777 34.383 68.5635C32.7998 68.8492 31.3015 69.4892 30 70.4349" stroke="#184997" stroke-width="2.4" stroke-linecap="round" stroke-linejoin="round"/>
<path d="M77.3899 66.5705C78.6325 66.5752 79.8485 66.211 80.8836 65.5236C81.9188 64.8362 82.7264 63.8566 83.2041 62.7095C83.6818 61.5624 83.8081 60.2992 83.5668 59.0802C83.3255 57.8613 82.7277 56.7412 81.849 55.8626C80.9704 54.9839 79.8505 54.3862 78.6315 54.1449C77.4126 53.9036 76.1495 54.0299 75.0023 54.5077C73.8552 54.9854 72.8758 55.7928 72.1884 56.828C71.501 57.8631 71.1365 59.079 71.1412 60.3216C71.1475 61.9769 71.8079 63.563 72.9784 64.7335C74.1489 65.904 75.7346 66.5642 77.3899 66.5705V66.5705Z" stroke="#184997" stroke-width="2.4" stroke-linecap="round" stroke-linejoin="round"/>
<path d="M67.5402 74.9184C68.1666 73.4365 69.1196 72.1154 70.328 71.0533C71.5364 69.9911 72.969 69.2152 74.519 68.7842C76.069 68.3531 77.6964 68.2777 79.2797 68.5635C80.8629 68.8492 82.3612 69.4892 83.6627 70.4349" stroke="#184997" stroke-width="2.4" stroke-linecap="round" stroke-linejoin="round"/>
<path d="M56.8313 66.5712C58.4257 66.5712 59.9843 66.0985 61.3099 65.2128C62.6356 64.327 63.6688 63.0681 64.2789 61.5951C64.8891 60.1221 65.0487 58.5013 64.7377 56.9376C64.4266 55.3738 63.6589 53.9372 62.5315 52.8098C61.4041 51.6825 59.9677 50.9147 58.404 50.6036C56.8403 50.2926 55.2195 50.4523 53.7465 51.0625C52.2735 51.6726 51.0145 52.7058 50.1287 54.0314C49.2429 55.3571 48.7701 56.9159 48.7701 58.5103C48.7701 59.5689 48.9786 60.6171 49.3838 61.5951C49.7889 62.5732 50.3827 63.4615 51.1312 64.2101C51.8798 64.9586 52.7685 65.5524 53.7465 65.9575C54.7245 66.3626 55.7727 66.5712 56.8313 66.5712V66.5712Z" stroke="#184997" stroke-width="2.4" stroke-linecap="round" stroke-linejoin="round"/>
<path d="M71.1407 82.6689C70.6909 79.1916 68.9903 75.9974 66.3568 73.6827C63.7233 71.3679 60.3371 70.0913 56.8309 70.0913C53.3247 70.0913 49.9385 71.3679 47.305 73.6827C44.6715 75.9974 42.9709 79.1916 42.521 82.6689" stroke="#184997" stroke-width="2.4" stroke-linecap="round" stroke-linejoin="round"/>
</svg>
