<svg width="21" height="20" viewBox="0 0 21 20" fill="none" xmlns="http://www.w3.org/2000/svg">
<path d="M0.65625 1.875C0.65625 1.54348 0.794523 1.22563 1.04066 0.991211C1.28681 0.75679 1.62065 0.625 1.96875 0.625H7.21875C7.56685 0.625 7.90069 0.75679 8.14684 0.991211C8.39298 1.22563 8.53125 1.54348 8.53125 1.875V6.875C8.53125 7.20652 8.39298 7.52437 8.14684 7.75879C7.90069 7.99321 7.56685 8.125 7.21875 8.125H1.96875C1.62065 8.125 1.28681 7.99321 1.04066 7.75879C0.794523 7.52437 0.65625 7.20652 0.65625 6.875V1.875Z" stroke="black" stroke-width="1.5" stroke-linecap="round" stroke-linejoin="round"/>
<path d="M0.65625 13.125C0.65625 12.7935 0.794523 12.4756 1.04066 12.2412C1.28681 12.0068 1.62065 11.875 1.96875 11.875H7.21875C7.56685 11.875 7.90069 12.0068 8.14684 12.2412C8.39298 12.4756 8.53125 12.7935 8.53125 13.125V18.125C8.53125 18.4565 8.39298 18.7744 8.14684 19.0088C7.90069 19.2432 7.56685 19.375 7.21875 19.375H1.96875C1.62065 19.375 1.28681 19.2432 1.04066 19.0088C0.794523 18.7744 0.65625 18.4565 0.65625 18.125V13.125Z" stroke="black" stroke-width="1.5" stroke-linecap="round" stroke-linejoin="round"/>
<path d="M12.4688 1.875C12.4688 1.54348 12.607 1.22563 12.8532 0.991211C13.0993 0.75679 13.4332 0.625 13.7812 0.625H19.0312C19.3793 0.625 19.7132 0.75679 19.9593 0.991211C20.2055 1.22563 20.3438 1.54348 20.3438 1.875V6.875C20.3438 7.20652 20.2055 7.52437 19.9593 7.75879C19.7132 7.99321 19.3793 8.125 19.0312 8.125H13.7812C13.4332 8.125 13.0993 7.99321 12.8532 7.75879C12.607 7.52437 12.4688 7.20652 12.4688 6.875V1.875Z" stroke="black" stroke-width="1.5" stroke-linecap="round" stroke-linejoin="round"/>
<path d="M12.4688 13.125C12.4688 12.7935 12.607 12.4756 12.8532 12.2412C13.0993 12.0068 13.4332 11.875 13.7812 11.875H19.0312C19.3793 11.875 19.7132 12.0068 19.9593 12.2412C20.2055 12.4756 20.3438 12.7935 20.3438 13.125V18.125C20.3438 18.4565 20.2055 18.7744 19.9593 19.0088C19.7132 19.2432 19.3793 19.375 19.0312 19.375H13.7812C13.4332 19.375 13.0993 19.2432 12.8532 19.0088C12.607 18.7744 12.4688 18.4565 12.4688 18.125V13.125Z" stroke="black" stroke-width="1.5" stroke-linecap="round" stroke-linejoin="round"/>
</svg>
