<svg width="21" height="22" viewBox="0 0 21 22" fill="none" xmlns="http://www.w3.org/2000/svg">
<path d="M1 2.30652C1 1.96001 1.13371 1.62779 1.37173 1.38277C1.60975 1.13775 1.93258 1 2.26919 1H18.7686C19.1052 1 19.4281 1.13775 19.6661 1.38277C19.9041 1.62779 20.0378 1.96001 20.0378 2.30652V19.2912C20.0378 19.6377 19.9041 19.97 19.6661 20.215C19.4281 20.46 19.1052 20.5978 18.7686 20.5978H2.26919C1.93258 20.5978 1.60975 20.46 1.37173 20.215C1.13371 19.97 1 19.6377 1 19.2912V2.30652Z" stroke="#0D263B" stroke-width="1.5" stroke-linecap="round" stroke-linejoin="round"/>
<path d="M9.7827 13.8473C10.5157 13.8473 11.2322 13.6234 11.8416 13.2042C12.4511 12.785 12.9261 12.1893 13.2066 11.4922C13.4871 10.7951 13.5605 10.0281 13.4175 9.28809C13.2745 8.54805 12.9216 7.86824 12.4033 7.33469C11.885 6.80115 11.2246 6.43779 10.5057 6.29059C9.78681 6.14338 9.04166 6.21895 8.36447 6.5077C7.68728 6.79645 7.10847 7.2853 6.70124 7.91267C6.29402 8.54005 6.07667 9.27782 6.07667 10.0324C6.07555 10.5337 6.17065 11.0301 6.3565 11.4935C6.54235 11.9569 6.8153 12.3779 7.15966 12.7324C7.50402 13.0869 7.91301 13.3678 8.36315 13.5591C8.81329 13.7505 9.29571 13.8484 9.7827 13.8473V13.8473Z" stroke="#0D263B" stroke-width="1.5" stroke-linecap="round" stroke-linejoin="round"/>
<path d="M12.397 12.7324L14.9353 15.3455" stroke="#0D263B" stroke-width="1.5" stroke-linecap="round" stroke-linejoin="round"/>
</svg>
