<svg fill="none" height="21" viewBox="0 0 21 21" width="21" xmlns="http://www.w3.org/2000/svg"><g stroke="#0d263b" stroke-linecap="round" stroke-linejoin="round" stroke-width="1.5"><path d="m1 6.02278v-3.76708c0-.33304.13229-.65233.36778-.88782s.55488-.36788.88792-.36788h3.76708"/><path d="m19.8358 6.02278v-3.76708c0-.33304-.1323-.65233-.3678-.88782s-.5549-.36788-.8879-.36788h-3.7671"/><path d="m1 14.8127v3.7671c0 .3331.13229.6524.36778.8878.23549.2355.55488.3679.88792.3679h3.76708"/><path d="m19.8358 14.8127v3.7671c0 .3331-.1323.6524-.3678.8878-.2355.2355-.5549.3679-.8879.3679h-3.7671"/><path d="m10.4175 11.0456c.6841.0016 1.3534-.1997 1.9231-.5786.5696-.3789 1.0141-.91823 1.277-1.54983.263-.6316.3326-1.32719.2002-1.9984-.1325-.67121-.4611-1.28801-.9443-1.77236-.4831-.48436-1.0992-.81444-1.7701-.94852s-1.36644-.06604-1.99868.19539c-.63223.26143-1.17269.70453-1.55296 1.27327s-.58324 1.23761-.58324 1.92176c-.00111.45363.08728.90291.26012 1.32232.17283.41942.42672.80068.7471 1.12187.32038.3211.70094.576 1.11994.7498.41899.1739.86818.2633 1.32182.2633z"/><path d="m15.7252 16.0684c-.3863-1.0993-1.1043-2.0515-2.0551-2.7252-.9507-.6736-2.0871-1.0353-3.2523-1.0353s-2.30166.3617-3.25238 1.0353c-.95072.6737-1.6688 1.6259-2.05507 2.7252"/></g></svg>